<?xml version="1.0" standalone="no"?>
<!DOCTYPE svg PUBLIC "-//W3C//DTD SVG 20010904//EN"
 "http://www.w3.org/TR/2001/REC-SVG-20010904/DTD/svg10.dtd">
<svg version="1.0" xmlns="http://www.w3.org/2000/svg"
 width="2000.000000pt" height="2000.000000pt" viewBox="0 0 2000.000000 2000.000000"
 preserveAspectRatio="xMidYMid meet">

<g transform="translate(0.000000,2000.000000) scale(0.100000,-0.100000)"
fill="#000000" stroke="none">
<path d="M9805 17414 c-255 -38 -461 -119 -688 -269 -109 -71 -185 -147 -2759
-2727 -1455 -1459 -2824 -2831 -3041 -3048 -431 -432 -463 -471 -583 -710
-178 -356 -193 -835 -39 -1217 36 -90 147 -289 200 -359 40 -53 278 -306 375
-398 41 -39 120 -118 175 -175 190 -198 5344 -5346 5482 -5476 76 -71 157
-142 178 -156 251 -164 395 -224 649 -269 278 -50 614 -8 862 110 55 26 148
78 205 115 99 65 237 201 3167 3134 3309 3312 3089 3085 3231 3328 108 186
191 497 191 713 0 142 -47 380 -102 519 -86 217 -167 355 -270 461 -35 36 -96
102 -135 146 -40 45 -100 108 -134 140 -44 42 -984 982 -1066 1067 -5 4 -143
142 -308 306 -165 164 -341 340 -390 392 -50 52 -129 130 -175 174 -103 97
-272 266 -475 474 -82 85 -172 175 -200 200 -27 25 -104 102 -170 171 -66 68
-140 142 -164 165 -25 22 -183 180 -352 350 -169 171 -336 337 -371 370 -34
33 -101 100 -148 150 -47 49 -121 124 -165 165 -43 41 -219 216 -390 388 -170
173 -339 341 -374 375 -35 34 -202 201 -370 372 -168 170 -337 339 -376 375
-38 36 -97 94 -130 130 -151 163 -168 177 -390 318 -66 41 -203 104 -287 131
-172 55 -234 64 -438 67 -107 1 -208 0 -225 -2z m312 -2166 c275 -267 727
-727 742 -756 10 -18 14 -336 17 -1384 3 -980 7 -1365 15 -1375 6 -7 18 -13
25 -13 25 0 217 184 718 689 699 703 647 656 694 625 15 -9 98 -90 185 -178
86 -89 185 -188 220 -221 34 -32 103 -102 152 -153 50 -52 562 -567 1139
-1145 607 -609 1072 -1083 1103 -1125 116 -156 179 -312 209 -516 36 -244 -31
-537 -169 -744 -79 -118 -215 -248 -335 -320 -285 -171 -457 -212 -886 -212
-123 0 -235 -4 -248 -9 -31 -12 -2216 -2200 -3503 -3509 -139 -141 -175 -172
-198 -172 -34 0 -127 89 -722 689 -795 802 -1742 1753 -2685 2699 -1728 1731
-1880 1886 -1880 1921 0 26 50 80 403 435 221 222 828 833 1349 1358 522 524
1419 1426 1995 2005 577 578 1087 1091 1134 1140 181 185 383 373 402 373 10
0 66 -46 124 -102z"/>
<path d="M9520 13651 c-92 -5 -134 -12 -160 -25 -44 -23 -2401 -2384 -2464
-2467 -67 -89 -150 -241 -196 -357 -89 -226 -117 -399 -107 -671 7 -191 32
-327 95 -516 98 -295 197 -485 349 -675 112 -138 1613 -1648 1748 -1757 275
-222 512 -332 875 -405 101 -20 143 -23 345 -22 211 0 241 3 360 28 427 90
659 223 1039 596 496 485 1435 1431 1509 1519 124 147 211 292 313 521 148
331 209 672 175 980 -23 209 -114 499 -197 625 -111 170 -152 218 -263 307
-116 93 -176 115 -243 89 -13 -5 -518 -505 -1123 -1111 -605 -605 -1167 -1167
-1249 -1248 -81 -81 -171 -171 -200 -201 -85 -90 -98 -101 -123 -101 -36 0
-1693 1658 -1693 1694 0 20 93 118 439 463 594 593 666 677 780 908 121 246
168 394 201 638 15 119 14 1148 -2 1169 -17 23 -61 26 -208 19z"/>
</g>
</svg>
